<svg width="178" height="26" viewBox="0 0 178 26" fill="none" xmlns="http://www.w3.org/2000/svg">
<g clip-path="url(#clip0_4284_6207)">
<path d="M12.1718 22.184C12.6802 21.8771 13.3169 21.8771 13.8254 22.184L19.0552 25.3406C20.2669 26.072 21.7617 24.9855 21.4401 23.6072L20.0521 17.6586C19.9172 17.0802 20.1137 16.4746 20.5626 16.0857L25.1854 12.0811C26.2552 11.1544 25.6833 9.39712 24.273 9.27751L18.1901 8.76161C17.5987 8.71146 17.0837 8.33813 16.8521 7.79173L14.4717 2.17553C13.9203 0.874718 12.0768 0.874722 11.5254 2.17553L9.14498 7.79173C8.91339 8.33813 8.39839 8.71146 7.80706 8.76161L1.72414 9.27751C0.313824 9.39712 -0.25806 11.1544 0.811731 12.0811L5.43449 16.0857C5.88342 16.4746 6.07998 17.0802 5.94502 17.6586L4.55701 23.6072C4.2354 24.9855 5.73021 26.072 6.94195 25.3406L12.1718 22.184Z" fill="#38A5F4"/>
</g>
<g clip-path="url(#clip1_4284_6207)">
<path d="M50.1718 22.184C50.6802 21.8771 51.3169 21.8771 51.8254 22.184L57.0552 25.3406C58.2669 26.072 59.7617 24.9855 59.4401 23.6072L58.0521 17.6586C57.9172 17.0802 58.1137 16.4746 58.5626 16.0857L63.1854 12.0811C64.2552 11.1544 63.6833 9.39712 62.273 9.27751L56.1901 8.76161C55.5987 8.71146 55.0837 8.33813 54.8521 7.79173L52.4717 2.17553C51.9203 0.874718 50.0768 0.874722 49.5254 2.17553L47.145 7.79173C46.9134 8.33813 46.3984 8.71146 45.8071 8.76161L39.7241 9.27751C38.3138 9.39712 37.7419 11.1544 38.8117 12.0811L43.4345 16.0857C43.8834 16.4746 44.08 17.0802 43.945 17.6586L42.557 23.6072C42.2354 24.9855 43.7302 26.072 44.9419 25.3406L50.1718 22.184Z" fill="#38A5F4"/>
</g>
<g clip-path="url(#clip2_4284_6207)">
<path d="M88.1718 22.184C88.6802 21.8771 89.3169 21.8771 89.8254 22.184L95.0552 25.3406C96.2669 26.072 97.7617 24.9855 97.4401 23.6072L96.0521 17.6586C95.9172 17.0802 96.1137 16.4746 96.5626 16.0857L101.185 12.0811C102.255 11.1544 101.683 9.39712 100.273 9.27751L94.1901 8.76161C93.5987 8.71146 93.0837 8.33813 92.8521 7.79173L90.4717 2.17553C89.9203 0.874718 88.0768 0.874722 87.5254 2.17553L85.145 7.79173C84.9134 8.33813 84.3984 8.71146 83.8071 8.76161L77.7241 9.27751C76.3138 9.39712 75.7419 11.1544 76.8117 12.0811L81.4345 16.0857C81.8834 16.4746 82.08 17.0802 81.945 17.6586L80.557 23.6072C80.2354 24.9855 81.7302 26.072 82.9419 25.3406L88.1718 22.184Z" fill="#38A5F4"/>
</g>
<g clip-path="url(#clip3_4284_6207)">
<path d="M126.172 22.184C126.68 21.8771 127.317 21.8771 127.825 22.184L133.055 25.3406C134.267 26.072 135.762 24.9855 135.44 23.6072L134.052 17.6586C133.917 17.0802 134.114 16.4746 134.563 16.0857L139.185 12.0811C140.255 11.1544 139.683 9.39712 138.273 9.27751L132.19 8.76161C131.599 8.71146 131.084 8.33813 130.852 7.79173L128.472 2.17553C127.92 0.874718 126.077 0.874722 125.525 2.17553L123.145 7.79173C122.913 8.33813 122.398 8.71146 121.807 8.76161L115.724 9.27751C114.314 9.39712 113.742 11.1544 114.812 12.0811L119.434 16.0857C119.883 16.4746 120.08 17.0802 119.945 17.6586L118.557 23.6072C118.235 24.9855 119.73 26.072 120.942 25.3406L126.172 22.184Z" fill="#38A5F4"/>
</g>
<g clip-path="url(#clip4_4284_6207)">
<path d="M164.172 22.184C164.68 21.8771 165.317 21.8771 165.825 22.184L171.055 25.3406C172.267 26.072 173.762 24.9855 173.44 23.6072L172.052 17.6586C171.917 17.0802 172.114 16.4746 172.563 16.0857L177.185 12.0811C178.255 11.1544 177.683 9.39712 176.273 9.27751L170.19 8.76161C169.599 8.71146 169.084 8.33813 168.852 7.79173L166.472 2.17553C165.92 0.874718 164.077 0.874722 163.525 2.17553L161.145 7.79173C160.913 8.33813 160.398 8.71146 159.807 8.76161L153.724 9.27751C152.314 9.39712 151.742 11.1544 152.812 12.0811L157.434 16.0857C157.883 16.4746 158.08 17.0802 157.945 17.6586L156.557 23.6072C156.235 24.9855 157.73 26.072 158.942 25.3406L164.172 22.184Z" fill="#38A5F4"/>
</g>
<defs>
<clipPath id="clip0_4284_6207">
<rect width="26" height="26" fill="white"/>
</clipPath>
<clipPath id="clip1_4284_6207">
<rect width="26" height="26" fill="white" transform="translate(38)"/>
</clipPath>
<clipPath id="clip2_4284_6207">
<rect width="26" height="26" fill="white" transform="translate(76)"/>
</clipPath>
<clipPath id="clip3_4284_6207">
<rect width="26" height="26" fill="white" transform="translate(114)"/>
</clipPath>
<clipPath id="clip4_4284_6207">
<rect width="26" height="26" fill="white" transform="translate(152)"/>
</clipPath>
</defs>
</svg>
