<svg width="171" height="40" viewBox="0 0 171 40" fill="none" xmlns="http://www.w3.org/2000/svg">
<path fill-rule="evenodd" clip-rule="evenodd" d="M4.62065 0.0957031C2.06873 0.0957031 0 2.16443 0 4.71635V34.7538C0 37.3058 2.06873 39.3745 4.62064 39.3745H32.8128C35.3647 39.3745 37.4335 37.3058 37.4335 34.7539V4.71635C37.4335 2.16444 35.3648 0.0957031 32.8128 0.0957031H4.62065ZM28.7313 5.75495C29.5088 5.75495 30.1391 5.12462 30.1391 4.34707C30.1391 3.56951 29.5088 2.93918 28.7313 2.93918C27.9537 2.93918 27.3234 3.56951 27.3234 4.34707C27.3234 5.12462 27.9537 5.75495 28.7313 5.75495ZM34.2344 4.34707C34.2344 5.12462 33.6041 5.75496 32.8265 5.75496C32.049 5.75496 31.4187 5.12462 31.4187 4.34707C31.4187 3.56951 32.049 2.93918 32.8265 2.93918C33.6041 2.93918 34.2344 3.56951 34.2344 4.34707ZM18.7167 31.3841C25.1178 31.3841 30.3069 26.1949 30.3069 19.7938C30.3069 13.3927 25.1178 8.20356 18.7167 8.20356C12.3155 8.20356 7.1264 13.3927 7.1264 19.7938C7.1264 26.1949 12.3155 31.3841 18.7167 31.3841Z" fill="#13263D"/>
<path fill-rule="evenodd" clip-rule="evenodd" d="M18.3842 10.6973C23.4931 10.6973 27.6355 14.8397 27.6355 19.9486C27.6355 25.0574 23.4931 29.2 18.3842 29.2C13.2713 29.2 9.13281 25.0575 9.13281 19.9486C9.13281 14.8397 13.2713 10.6973 18.3842 10.6973ZM18.3842 12.5851C20.0924 12.5832 21.7477 13.1773 23.0649 14.2649C22.0017 13.7786 21.1346 13.6763 19.9654 13.679C15.4681 13.679 12.4024 16.746 11.8189 21.8213C11.7794 22.1645 11.775 22.2199 11.6199 22.8597C11.2223 21.9409 11.0182 20.9499 11.0205 19.9487C11.0205 15.8837 14.315 12.5852 18.3841 12.5852L18.3842 12.5851Z" fill="#38A5F4"/>
<path d="M52.7243 10.3107V24.4975H59.9578V28.1396H48.9038V10.3107H52.7243ZM70.8666 15.4047H74.4834V28.1396H70.8666V27.1718C70.3063 27.5963 69.6865 27.9189 69.0073 28.1396C68.3451 28.3774 67.6744 28.4962 66.9952 28.4962C65.6708 28.4962 64.5246 28.2076 63.5568 27.6303C62.6059 27.0529 61.8758 26.2634 61.3664 25.2615C60.857 24.2428 60.6023 23.0881 60.6023 21.7976C60.6023 20.5072 60.857 19.3525 61.3664 18.3337C61.8758 17.298 62.6059 16.4914 63.5568 15.9141C64.5246 15.3368 65.6708 15.0481 66.9952 15.0481C67.6914 15.0481 68.3706 15.167 69.0328 15.4047C69.695 15.6424 70.3063 15.9735 70.8666 16.398V15.4047ZM67.4791 25.0323C68.43 25.0323 69.2281 24.7267 69.8733 24.1154C70.5186 23.5041 70.8412 22.7146 70.8412 21.7467C70.8412 20.8128 70.5186 20.0487 69.8733 19.4544C69.2281 18.8601 68.43 18.563 67.4791 18.563C66.5283 18.563 65.7472 18.8601 65.1359 19.4544C64.5246 20.0487 64.219 20.8298 64.219 21.7976C64.219 22.7655 64.5246 23.5466 65.1359 24.1409C65.7472 24.7352 66.5283 25.0323 67.4791 25.0323ZM84.8484 15.4047H88.4906V28.1396H84.8484V27.2737C83.8806 28.0887 82.8533 28.4962 81.7666 28.4962C81.0195 28.4962 80.2638 28.3349 79.4997 28.0123C78.7357 27.6897 78.0819 27.1209 77.5386 26.3058C76.9952 25.4908 76.7235 24.3956 76.7235 23.0202V15.4047H80.3657V23.0202C80.3657 23.8183 80.595 24.4041 81.0534 24.7776C81.5119 25.1342 82.0552 25.3125 82.6835 25.3125C83.2948 25.3125 83.8042 25.0917 84.2117 24.6503C84.6362 24.2088 84.8484 23.5041 84.8484 22.5363V15.4047ZM98.3306 15.0481C99.0777 15.0481 99.8333 15.2094 100.597 15.532C101.361 15.8547 102.015 16.4235 102.559 17.2385C103.102 18.0536 103.374 19.1488 103.374 20.5241V28.1396H99.7314V20.5241C99.7314 19.7091 99.5022 19.1233 99.0437 18.7667C98.6022 18.4101 98.0674 18.2319 97.4391 18.2319C96.8109 18.2319 96.2845 18.4526 95.86 18.8941C95.4525 19.3356 95.2487 20.0402 95.2487 21.0081V28.1396H91.6065V15.4047H95.2487V16.2707C96.2166 15.4556 97.2439 15.0481 98.3306 15.0481ZM115.463 10.3107H119.08V28.1396H115.463V27.1718C114.903 27.5963 114.292 27.9189 113.629 28.1396C112.984 28.3774 112.313 28.4962 111.617 28.4962C110.293 28.4962 109.147 28.2076 108.179 27.6303C107.228 27.0529 106.498 26.2634 105.988 25.2615C105.479 24.2428 105.224 23.0881 105.224 21.7976C105.224 20.5072 105.479 19.3525 105.988 18.3337C106.498 17.298 107.228 16.4914 108.179 15.9141C109.147 15.3368 110.293 15.0481 111.617 15.0481C112.296 15.0481 112.967 15.167 113.629 15.4047C114.292 15.6254 114.903 15.9481 115.463 16.3726V10.3107ZM112.101 25.0323C113.052 25.0323 113.85 24.7267 114.495 24.1154C115.141 23.5041 115.463 22.7146 115.463 21.7467C115.463 20.8128 115.141 20.0487 114.495 19.4544C113.85 18.8601 113.052 18.563 112.101 18.563C111.15 18.563 110.369 18.8601 109.758 19.4544C109.147 20.0487 108.841 20.8298 108.841 21.7976C108.841 22.7655 109.147 23.5466 109.758 24.1409C110.369 24.7352 111.15 25.0323 112.101 25.0323ZM130.223 15.15L129.968 18.5884C129.849 18.5375 129.654 18.512 129.382 18.512C128.346 18.512 127.497 18.8092 126.835 19.4035C126.19 19.9808 125.867 20.7449 125.867 21.6958V28.1396H122.225V15.4047H125.867V17.4678C126.173 16.8055 126.665 16.2537 127.345 15.8122C128.024 15.3707 128.847 15.15 129.815 15.15H130.223ZM141.025 15.4047H144.82L140.541 27.9614C139.828 29.7952 138.86 31.1621 137.638 32.062C136.432 32.962 134.989 33.3525 133.308 33.2336V29.7188C133.41 29.7358 133.563 29.7443 133.766 29.7443C134.48 29.7443 135.074 29.5575 135.549 29.1839C136.025 28.8104 136.424 28.2925 136.746 27.6303L131.245 15.4047H135.167L138.504 22.7146L141.025 15.4047ZM164.2 10.3107H168.784L163.003 19.2507L168.759 28.1396H164.174L160.328 22.1542L156.482 28.1396H151.898L157.654 19.2507L151.872 10.3107H156.457L160.328 16.3216L164.2 10.3107Z" fill="#13263D"/>
</svg>
